<mxfile host="app.diagrams.net" agent="Mozilla/5.0 (Windows NT 10.0; Win64; x64; rv:139.0) Gecko/20100101 Firefox/139.0" version="27.0.3">
  <diagram name="페이지-1" id="hRGSPaa-rWTWovE11J0W">
    <mxGraphModel dx="1678" dy="884" grid="1" gridSize="10" guides="1" tooltips="1" connect="1" arrows="1" fold="1" page="1" pageScale="1" pageWidth="827" pageHeight="1169" math="0" shadow="0">
      <root>
        <mxCell id="0" />
        <mxCell id="1" parent="0" />
        <mxCell id="aQR6oSBWsRWwnGMxyLxq-20" value="" style="whiteSpace=wrap;html=1;" parent="1" vertex="1">
          <mxGeometry x="40" y="40" width="650" height="380" as="geometry" />
        </mxCell>
        <mxCell id="aQR6oSBWsRWwnGMxyLxq-73" value="" style="rounded=0;whiteSpace=wrap;html=1;" parent="1" vertex="1">
          <mxGeometry x="40" y="600" width="650" height="530" as="geometry" />
        </mxCell>
        <mxCell id="aQR6oSBWsRWwnGMxyLxq-88" style="edgeStyle=orthogonalEdgeStyle;rounded=0;orthogonalLoop=1;jettySize=auto;html=1;exitX=0;exitY=0;exitDx=80;exitDy=165;exitPerimeter=0;entryX=0.5;entryY=0;entryDx=0;entryDy=0;" parent="1" source="aQR6oSBWsRWwnGMxyLxq-21" target="aQR6oSBWsRWwnGMxyLxq-74" edge="1">
          <mxGeometry relative="1" as="geometry" />
        </mxCell>
        <mxCell id="aQR6oSBWsRWwnGMxyLxq-21" value="Track Packet" style="verticalAlign=top;align=left;spacingTop=8;spacingLeft=2;spacingRight=12;shape=cube;size=10;direction=south;fontStyle=4;html=1;whiteSpace=wrap;" parent="1" vertex="1">
          <mxGeometry x="80" y="480" width="320" height="80" as="geometry" />
        </mxCell>
        <mxCell id="aQR6oSBWsRWwnGMxyLxq-25" value="-1,-1##-1, -1/-1, -1/.../-1,-1" style="text;html=1;align=center;verticalAlign=middle;whiteSpace=wrap;rounded=0;" parent="1" vertex="1">
          <mxGeometry x="90" y="520" width="290" height="30" as="geometry" />
        </mxCell>
        <mxCell id="aQR6oSBWsRWwnGMxyLxq-26" value="&lt;h1 style=&quot;margin-top: 0px;&quot;&gt;Track Packet : String(Byte)&lt;/h1&gt;&lt;div&gt;&lt;font style=&quot;font-size: 14px;&quot;&gt;홍채 좌표 (구분자 ##) 손 좌표1/손 좌표2/.../손좌표27&lt;/font&gt;&lt;/div&gt;&lt;div&gt;&lt;br&gt;&lt;/div&gt;&lt;div&gt;&lt;font style=&quot;font-size: 14px;&quot;&gt;ex) -1,-1##-1, -1/-1, -1/.../-1,-1&lt;/font&gt;&lt;/div&gt;" style="text;html=1;whiteSpace=wrap;overflow=hidden;rounded=0;" parent="1" vertex="1">
          <mxGeometry x="870" y="410" width="350" height="110" as="geometry" />
        </mxCell>
        <mxCell id="aQR6oSBWsRWwnGMxyLxq-27" value="&lt;font style=&quot;font-size: 21px;&quot;&gt;&lt;b&gt;Python&lt;/b&gt;&lt;/font&gt;" style="text;html=1;align=center;verticalAlign=middle;whiteSpace=wrap;rounded=0;" parent="1" vertex="1">
          <mxGeometry x="60" y="50" width="60" height="30" as="geometry" />
        </mxCell>
        <mxCell id="aQR6oSBWsRWwnGMxyLxq-30" value="&lt;div&gt;mediapipe&lt;/div&gt;" style="shape=folder;fontStyle=1;spacingTop=10;tabWidth=40;tabHeight=14;tabPosition=left;html=1;whiteSpace=wrap;" parent="1" vertex="1">
          <mxGeometry x="55" y="100" width="70" height="50" as="geometry" />
        </mxCell>
        <mxCell id="aQR6oSBWsRWwnGMxyLxq-31" value="&lt;div&gt;openCV&lt;/div&gt;" style="shape=folder;fontStyle=1;spacingTop=10;tabWidth=40;tabHeight=14;tabPosition=left;html=1;whiteSpace=wrap;" parent="1" vertex="1">
          <mxGeometry x="55" y="160" width="70" height="50" as="geometry" />
        </mxCell>
        <mxCell id="aQR6oSBWsRWwnGMxyLxq-44" style="edgeStyle=orthogonalEdgeStyle;rounded=0;orthogonalLoop=1;jettySize=auto;html=1;entryX=0;entryY=0.5;entryDx=0;entryDy=0;" parent="1" source="aQR6oSBWsRWwnGMxyLxq-33" target="aQR6oSBWsRWwnGMxyLxq-35" edge="1">
          <mxGeometry relative="1" as="geometry" />
        </mxCell>
        <mxCell id="aQR6oSBWsRWwnGMxyLxq-33" value="&lt;p style=&quot;margin:0px;margin-top:4px;text-align:center;&quot;&gt;&lt;b&gt;Tracker&lt;/b&gt;&lt;/p&gt;&lt;hr size=&quot;1&quot; style=&quot;border-style:solid;&quot;&gt;&lt;div style=&quot;height:2px;&quot;&gt;&amp;nbsp;+ get_iris_position()&lt;/div&gt;&lt;div style=&quot;height:2px;&quot;&gt;&lt;br&gt;&lt;/div&gt;&lt;div style=&quot;height:2px;&quot;&gt;&lt;br&gt;&amp;nbsp;+ get_hand_position()&lt;/div&gt;" style="verticalAlign=top;align=left;overflow=fill;html=1;whiteSpace=wrap;" parent="1" vertex="1">
          <mxGeometry x="180" y="95" width="140" height="95" as="geometry" />
        </mxCell>
        <mxCell id="aQR6oSBWsRWwnGMxyLxq-46" style="edgeStyle=orthogonalEdgeStyle;rounded=0;orthogonalLoop=1;jettySize=auto;html=1;exitX=1;exitY=0.5;exitDx=0;exitDy=0;entryX=0.75;entryY=1;entryDx=0;entryDy=0;" parent="1" source="aQR6oSBWsRWwnGMxyLxq-34" target="aQR6oSBWsRWwnGMxyLxq-35" edge="1">
          <mxGeometry relative="1" as="geometry" />
        </mxCell>
        <mxCell id="aQR6oSBWsRWwnGMxyLxq-34" value="&lt;p style=&quot;margin:0px;margin-top:4px;text-align:center;&quot;&gt;UDPManager&lt;/p&gt;&lt;hr size=&quot;1&quot; style=&quot;border-style:solid;&quot;&gt;&lt;div style=&quot;height:2px;&quot;&gt;&amp;nbsp;+ send()&lt;/div&gt;&lt;div style=&quot;height:2px;&quot;&gt;&lt;br&gt;&amp;nbsp;+ receive()&lt;br&gt;&lt;/div&gt;&lt;div&gt;&lt;br&gt;&lt;/div&gt;&lt;div&gt;&lt;br&gt;&lt;/div&gt;&lt;div&gt;&amp;nbsp;+ set_state()&lt;/div&gt;" style="verticalAlign=top;align=left;overflow=fill;html=1;whiteSpace=wrap;" parent="1" vertex="1">
          <mxGeometry x="320" y="300" width="140" height="95" as="geometry" />
        </mxCell>
        <mxCell id="aQR6oSBWsRWwnGMxyLxq-45" style="edgeStyle=orthogonalEdgeStyle;rounded=0;orthogonalLoop=1;jettySize=auto;html=1;entryX=0.5;entryY=0;entryDx=0;entryDy=0;" parent="1" source="aQR6oSBWsRWwnGMxyLxq-35" target="aQR6oSBWsRWwnGMxyLxq-34" edge="1">
          <mxGeometry relative="1" as="geometry" />
        </mxCell>
        <mxCell id="aQR6oSBWsRWwnGMxyLxq-35" value="&lt;p style=&quot;margin:0px;margin-top:4px;text-align:center;&quot;&gt;&lt;b&gt;xyMapper&lt;/b&gt;&lt;/p&gt;&lt;hr size=&quot;1&quot; style=&quot;border-style:solid;&quot;&gt;&lt;div style=&quot;height:2px;&quot;&gt;&lt;font&gt;&amp;nbsp;+ set_window()&lt;br&gt;&amp;nbsp;+ set_calibration()&lt;/font&gt;&lt;/div&gt;&lt;div style=&quot;height:2px;&quot;&gt;&lt;font&gt;&lt;br&gt;&lt;br&gt;&amp;nbsp;+ get_position()&lt;/font&gt;&lt;/div&gt;" style="verticalAlign=top;align=left;overflow=fill;html=1;whiteSpace=wrap;" parent="1" vertex="1">
          <mxGeometry x="460" y="95" width="140" height="95" as="geometry" />
        </mxCell>
        <mxCell id="aQR6oSBWsRWwnGMxyLxq-43" style="edgeStyle=orthogonalEdgeStyle;rounded=0;orthogonalLoop=1;jettySize=auto;html=1;exitX=0.5;exitY=1;exitDx=0;exitDy=0;entryX=0;entryY=0;entryDx=0;entryDy=155;entryPerimeter=0;" parent="1" source="aQR6oSBWsRWwnGMxyLxq-34" target="aQR6oSBWsRWwnGMxyLxq-21" edge="1">
          <mxGeometry relative="1" as="geometry" />
        </mxCell>
        <mxCell id="aQR6oSBWsRWwnGMxyLxq-47" value="get_iris_position()&lt;br&gt;get_hand_position()" style="text;html=1;align=center;verticalAlign=middle;whiteSpace=wrap;rounded=0;" parent="1" vertex="1">
          <mxGeometry x="360" y="110" width="60" height="30" as="geometry" />
        </mxCell>
        <mxCell id="aQR6oSBWsRWwnGMxyLxq-48" value="&lt;div&gt;Running&lt;/div&gt;&lt;div&gt;&lt;hr&gt;get_position()&lt;/div&gt;" style="text;html=1;align=center;verticalAlign=middle;whiteSpace=wrap;rounded=0;" parent="1" vertex="1">
          <mxGeometry x="420" y="207" width="80" height="30" as="geometry" />
        </mxCell>
        <mxCell id="aQR6oSBWsRWwnGMxyLxq-50" value="&lt;p style=&quot;margin: 4px 0px 0px; text-align: center; text-decoration: underline;&quot;&gt;&lt;b&gt;UDPState&lt;/b&gt;&lt;/p&gt;&lt;hr size=&quot;1&quot; style=&quot;border-style:solid;&quot;&gt;&lt;div&gt;&amp;nbsp; - start&lt;/div&gt;&lt;div&gt;&amp;nbsp; - wait&lt;/div&gt;&lt;div&gt;&amp;nbsp; - running&lt;/div&gt;&lt;div&gt;&amp;nbsp; - terminated&lt;/div&gt;" style="verticalAlign=top;align=left;overflow=fill;html=1;whiteSpace=wrap;" parent="1" vertex="1">
          <mxGeometry x="110" y="300" width="160" height="100" as="geometry" />
        </mxCell>
        <mxCell id="aQR6oSBWsRWwnGMxyLxq-51" value="" style="line;strokeWidth=1;fillColor=none;align=left;verticalAlign=middle;spacingTop=-1;spacingLeft=3;spacingRight=3;rotatable=0;labelPosition=right;points=[];portConstraint=eastwest;strokeColor=inherit;" parent="1" vertex="1">
          <mxGeometry x="270" y="343.5" width="50" height="8" as="geometry" />
        </mxCell>
        <mxCell id="aQR6oSBWsRWwnGMxyLxq-53" value="&lt;div&gt;Start&lt;/div&gt;&lt;div&gt;&lt;hr&gt;set_window()&lt;/div&gt;" style="text;html=1;align=center;verticalAlign=middle;whiteSpace=wrap;rounded=0;" parent="1" vertex="1">
          <mxGeometry x="570" y="237" width="80" height="30" as="geometry" />
        </mxCell>
        <mxCell id="aQR6oSBWsRWwnGMxyLxq-56" value="" style="edgeStyle=orthogonalEdgeStyle;rounded=0;orthogonalLoop=1;jettySize=auto;html=1;" parent="1" source="aQR6oSBWsRWwnGMxyLxq-54" target="aQR6oSBWsRWwnGMxyLxq-55" edge="1">
          <mxGeometry relative="1" as="geometry" />
        </mxCell>
        <mxCell id="aQR6oSBWsRWwnGMxyLxq-54" value="Start" style="ellipse;whiteSpace=wrap;html=1;" parent="1" vertex="1">
          <mxGeometry x="870" y="40" width="120" height="80" as="geometry" />
        </mxCell>
        <mxCell id="aQR6oSBWsRWwnGMxyLxq-58" value="" style="edgeStyle=orthogonalEdgeStyle;rounded=0;orthogonalLoop=1;jettySize=auto;html=1;" parent="1" source="aQR6oSBWsRWwnGMxyLxq-55" target="aQR6oSBWsRWwnGMxyLxq-57" edge="1">
          <mxGeometry relative="1" as="geometry" />
        </mxCell>
        <mxCell id="aQR6oSBWsRWwnGMxyLxq-55" value="Wait" style="ellipse;whiteSpace=wrap;html=1;" parent="1" vertex="1">
          <mxGeometry x="1070" y="40" width="120" height="80" as="geometry" />
        </mxCell>
        <mxCell id="aQR6oSBWsRWwnGMxyLxq-60" value="" style="edgeStyle=orthogonalEdgeStyle;rounded=0;orthogonalLoop=1;jettySize=auto;html=1;" parent="1" source="aQR6oSBWsRWwnGMxyLxq-57" target="aQR6oSBWsRWwnGMxyLxq-59" edge="1">
          <mxGeometry relative="1" as="geometry" />
        </mxCell>
        <mxCell id="aQR6oSBWsRWwnGMxyLxq-57" value="Running" style="ellipse;whiteSpace=wrap;html=1;" parent="1" vertex="1">
          <mxGeometry x="1311" y="40" width="120" height="80" as="geometry" />
        </mxCell>
        <mxCell id="aQR6oSBWsRWwnGMxyLxq-59" value="Terminated" style="ellipse;whiteSpace=wrap;html=1;" parent="1" vertex="1">
          <mxGeometry x="1470" y="395" width="120" height="80" as="geometry" />
        </mxCell>
        <mxCell id="aQR6oSBWsRWwnGMxyLxq-61" value="&lt;h1 style=&quot;margin-top: 0px;&quot;&gt;Start&lt;/h1&gt;&lt;div&gt;시작하는 기본 상태&lt;/div&gt;&lt;div&gt;&lt;br&gt;&lt;/div&gt;&lt;div&gt;작업 없음 &lt;br&gt;&lt;/div&gt;&lt;div&gt;&lt;br&gt;&lt;/div&gt;" style="text;html=1;whiteSpace=wrap;overflow=hidden;rounded=0;" parent="1" vertex="1">
          <mxGeometry x="870" y="121.5" width="120" height="230" as="geometry" />
        </mxCell>
        <mxCell id="aQR6oSBWsRWwnGMxyLxq-64" value="&lt;div&gt;Wait&lt;/div&gt;&lt;div&gt;&lt;hr&gt;set_calibration()&lt;/div&gt;" style="text;html=1;align=center;verticalAlign=middle;whiteSpace=wrap;rounded=0;" parent="1" vertex="1">
          <mxGeometry x="570" y="280.5" width="80" height="30" as="geometry" />
        </mxCell>
        <mxCell id="aQR6oSBWsRWwnGMxyLxq-65" value="set_window()" style="text;html=1;align=center;verticalAlign=middle;whiteSpace=wrap;rounded=0;" parent="1" vertex="1">
          <mxGeometry x="1000" y="50" width="60" height="30" as="geometry" />
        </mxCell>
        <mxCell id="aQR6oSBWsRWwnGMxyLxq-66" value="set_calibration()" style="text;html=1;align=center;verticalAlign=middle;whiteSpace=wrap;rounded=0;" parent="1" vertex="1">
          <mxGeometry x="1213" y="50" width="60" height="30" as="geometry" />
        </mxCell>
        <mxCell id="aQR6oSBWsRWwnGMxyLxq-68" value="unity_close" style="text;html=1;align=center;verticalAlign=middle;whiteSpace=wrap;rounded=0;" parent="1" vertex="1">
          <mxGeometry x="1440" y="50" width="60" height="30" as="geometry" />
        </mxCell>
        <mxCell id="aQR6oSBWsRWwnGMxyLxq-69" value="&lt;h1 style=&quot;margin-top: 0px;&quot;&gt;Wait&lt;/h1&gt;&lt;div&gt;Unity에서 신호가 올 때 까지 대기하는 단계&lt;/div&gt;&lt;div&gt;&lt;br&gt;&lt;/div&gt;&lt;div&gt;Tracker는 활성화 되어있음.&lt;/div&gt;&lt;div&gt;&lt;br&gt;&lt;/div&gt;&lt;div&gt;Receive On&lt;/div&gt;&lt;div&gt;Send Off&lt;/div&gt;&lt;div&gt;&lt;br&gt;&lt;/div&gt;" style="text;html=1;whiteSpace=wrap;overflow=hidden;rounded=0;" parent="1" vertex="1">
          <mxGeometry x="1070" y="130" width="120" height="230" as="geometry" />
        </mxCell>
        <mxCell id="aQR6oSBWsRWwnGMxyLxq-70" value="&lt;h1 style=&quot;margin-top: 0px;&quot;&gt;Running&lt;/h1&gt;&lt;div&gt;Unity에서 게임이 시작된 단계&lt;/div&gt;&lt;div&gt;&amp;nbsp;&lt;br&gt;&lt;/div&gt;&lt;div&gt;&amp;nbsp;Tracker 활성화&lt;/div&gt;&lt;div&gt;&lt;br&gt;&lt;/div&gt;&lt;div&gt;&amp;nbsp;Receive Off&lt;/div&gt;&lt;div&gt;&amp;nbsp;Send On&lt;/div&gt;&lt;div&gt;&lt;br&gt;&lt;/div&gt;&lt;div&gt;&amp;nbsp;게임이 끝날 때까지 송신&lt;/div&gt;" style="text;html=1;whiteSpace=wrap;overflow=hidden;rounded=0;" parent="1" vertex="1">
          <mxGeometry x="1311" y="121.5" width="120" height="230" as="geometry" />
        </mxCell>
        <mxCell id="aQR6oSBWsRWwnGMxyLxq-71" value="&lt;h1 style=&quot;margin-top: 0px;&quot;&gt;Terminated&lt;/h1&gt;&lt;div&gt;&amp;nbsp;게임이 꺼지거나 끝남&lt;/div&gt;&lt;div&gt;&lt;br&gt;&lt;/div&gt;&lt;div&gt;게임이 꺼지면 컴파일 된 .exe&lt;/div&gt;&lt;div&gt;실행파일 또한 꺼지게 설정 하기 때문에&lt;/div&gt;&lt;div&gt;&lt;br&gt;&lt;/div&gt;&lt;div&gt;파이썬에서 구현할 이유 없음&lt;/div&gt;&lt;div&gt;&lt;br&gt;&lt;/div&gt;" style="text;html=1;whiteSpace=wrap;overflow=hidden;rounded=0;" parent="1" vertex="1">
          <mxGeometry x="1360" y="481.5" width="239" height="230" as="geometry" />
        </mxCell>
        <mxCell id="A50oPSLGUD1VRiYejSJO-8" style="edgeStyle=orthogonalEdgeStyle;rounded=0;orthogonalLoop=1;jettySize=auto;html=1;exitX=0.25;exitY=1;exitDx=0;exitDy=0;entryX=0.5;entryY=0;entryDx=0;entryDy=0;" parent="1" source="aQR6oSBWsRWwnGMxyLxq-74" target="A50oPSLGUD1VRiYejSJO-3" edge="1">
          <mxGeometry relative="1" as="geometry" />
        </mxCell>
        <mxCell id="aQR6oSBWsRWwnGMxyLxq-74" value="&lt;p style=&quot;margin:0px;margin-top:4px;text-align:center;&quot;&gt;UDPManager&lt;/p&gt;&lt;hr size=&quot;1&quot; style=&quot;border-style:solid;&quot;&gt;&lt;div style=&quot;height:2px;&quot;&gt;&amp;nbsp;+ send()&lt;/div&gt;&lt;div style=&quot;height:2px;&quot;&gt;&lt;br&gt;&amp;nbsp;+ receive()&lt;br&gt;&lt;/div&gt;&lt;div&gt;&lt;br&gt;&lt;/div&gt;&lt;div&gt;&lt;br&gt;&lt;/div&gt;&lt;div&gt;&amp;nbsp;+ set_state()&lt;/div&gt;" style="verticalAlign=top;align=left;overflow=fill;html=1;whiteSpace=wrap;" parent="1" vertex="1">
          <mxGeometry x="165" y="650" width="140" height="95" as="geometry" />
        </mxCell>
        <mxCell id="aQR6oSBWsRWwnGMxyLxq-75" value="&lt;font style=&quot;font-size: 21px;&quot;&gt;&lt;b&gt;Unity&lt;/b&gt;&lt;/font&gt;" style="text;html=1;align=center;verticalAlign=middle;whiteSpace=wrap;rounded=0;" parent="1" vertex="1">
          <mxGeometry x="50" y="610" width="60" height="30" as="geometry" />
        </mxCell>
        <mxCell id="aQR6oSBWsRWwnGMxyLxq-85" style="edgeStyle=orthogonalEdgeStyle;rounded=0;orthogonalLoop=1;jettySize=auto;html=1;exitX=0;exitY=0;exitDx=0;exitDy=95;exitPerimeter=0;entryX=1;entryY=0.75;entryDx=0;entryDy=0;" parent="1" source="aQR6oSBWsRWwnGMxyLxq-80" target="aQR6oSBWsRWwnGMxyLxq-34" edge="1">
          <mxGeometry relative="1" as="geometry" />
        </mxCell>
        <mxCell id="aQR6oSBWsRWwnGMxyLxq-80" value="&lt;div&gt;Signal Packet&lt;br&gt;&lt;/div&gt;" style="verticalAlign=top;align=left;spacingTop=8;spacingLeft=2;spacingRight=12;shape=cube;size=10;direction=south;fontStyle=4;html=1;whiteSpace=wrap;" parent="1" vertex="1">
          <mxGeometry x="480" y="480" width="200" height="80" as="geometry" />
        </mxCell>
        <mxCell id="aQR6oSBWsRWwnGMxyLxq-81" value="-1, -1" style="text;html=1;align=center;verticalAlign=middle;whiteSpace=wrap;rounded=0;" parent="1" vertex="1">
          <mxGeometry x="490" y="520" width="170" height="30" as="geometry" />
        </mxCell>
        <mxCell id="aQR6oSBWsRWwnGMxyLxq-89" style="edgeStyle=orthogonalEdgeStyle;rounded=0;orthogonalLoop=1;jettySize=auto;html=1;exitX=1;exitY=0.25;exitDx=0;exitDy=0;entryX=0;entryY=0;entryDx=80;entryDy=105;entryPerimeter=0;" parent="1" source="aQR6oSBWsRWwnGMxyLxq-74" target="aQR6oSBWsRWwnGMxyLxq-80" edge="1">
          <mxGeometry relative="1" as="geometry" />
        </mxCell>
        <mxCell id="aQR6oSBWsRWwnGMxyLxq-90" value="&lt;h1 style=&quot;margin-top: 0px;&quot;&gt;Signal Packet&lt;/h1&gt;&quot;0&quot; 과 &quot;1&quot;로 부울대수를 보냄" style="text;html=1;whiteSpace=wrap;overflow=hidden;rounded=0;" parent="1" vertex="1">
          <mxGeometry x="870" y="540" width="380" height="110" as="geometry" />
        </mxCell>
        <mxCell id="A50oPSLGUD1VRiYejSJO-3" value="FaceLandMark" style="swimlane;fontStyle=1;align=center;verticalAlign=top;childLayout=stackLayout;horizontal=1;startSize=26;horizontalStack=0;resizeParent=1;resizeParentMax=0;resizeLast=0;collapsible=1;marginBottom=0;whiteSpace=wrap;html=1;" parent="1" vertex="1">
          <mxGeometry x="55" y="790" width="180" height="150" as="geometry" />
        </mxCell>
        <mxCell id="A50oPSLGUD1VRiYejSJO-4" value="&lt;div&gt;+ EyePoint: Vector2&lt;/div&gt;&lt;div&gt;+ HandPoints: Vector3[]&lt;/div&gt;&lt;div&gt;+ HandFolds: int&lt;/div&gt;" style="text;strokeColor=none;fillColor=none;align=left;verticalAlign=top;spacingLeft=4;spacingRight=4;overflow=hidden;rotatable=0;points=[[0,0.5],[1,0.5]];portConstraint=eastwest;whiteSpace=wrap;html=1;" parent="A50oPSLGUD1VRiYejSJO-3" vertex="1">
          <mxGeometry y="26" width="180" height="44" as="geometry" />
        </mxCell>
        <mxCell id="A50oPSLGUD1VRiYejSJO-5" value="" style="line;strokeWidth=1;fillColor=none;align=left;verticalAlign=middle;spacingTop=-1;spacingLeft=3;spacingRight=3;rotatable=0;labelPosition=right;points=[];portConstraint=eastwest;strokeColor=inherit;" parent="A50oPSLGUD1VRiYejSJO-3" vertex="1">
          <mxGeometry y="70" width="180" height="8" as="geometry" />
        </mxCell>
        <mxCell id="A50oPSLGUD1VRiYejSJO-6" value="&lt;div&gt;+ HasEyePoint(): bool&lt;/div&gt;&lt;div&gt;+ HasHandPoint(): bool&lt;/div&gt;&lt;div&gt;+ DataProcessing(string): void&lt;/div&gt;&lt;div&gt;+ ToStr(): striing&lt;/div&gt;" style="text;strokeColor=none;fillColor=none;align=left;verticalAlign=top;spacingLeft=4;spacingRight=4;overflow=hidden;rotatable=0;points=[[0,0.5],[1,0.5]];portConstraint=eastwest;whiteSpace=wrap;html=1;" parent="A50oPSLGUD1VRiYejSJO-3" vertex="1">
          <mxGeometry y="78" width="180" height="72" as="geometry" />
        </mxCell>
        <mxCell id="GkLlMbA-TtIstjS6Swca-13" style="edgeStyle=orthogonalEdgeStyle;rounded=0;orthogonalLoop=1;jettySize=auto;html=1;exitX=1;exitY=0.5;exitDx=0;exitDy=0;entryX=0;entryY=0.5;entryDx=0;entryDy=0;" edge="1" parent="1" source="A50oPSLGUD1VRiYejSJO-4" target="GkLlMbA-TtIstjS6Swca-28">
          <mxGeometry relative="1" as="geometry">
            <mxPoint x="280" y="815" as="targetPoint" />
          </mxGeometry>
        </mxCell>
        <mxCell id="GkLlMbA-TtIstjS6Swca-29" value="" style="edgeStyle=orthogonalEdgeStyle;rounded=0;orthogonalLoop=1;jettySize=auto;html=1;" edge="1" parent="1" source="GkLlMbA-TtIstjS6Swca-24" target="GkLlMbA-TtIstjS6Swca-28">
          <mxGeometry relative="1" as="geometry" />
        </mxCell>
        <mxCell id="GkLlMbA-TtIstjS6Swca-35" value="" style="edgeStyle=orthogonalEdgeStyle;rounded=0;orthogonalLoop=1;jettySize=auto;html=1;" edge="1" parent="1" source="GkLlMbA-TtIstjS6Swca-24" target="GkLlMbA-TtIstjS6Swca-34">
          <mxGeometry relative="1" as="geometry" />
        </mxCell>
        <mxCell id="GkLlMbA-TtIstjS6Swca-24" value="Eyecheck" style="html=1;whiteSpace=wrap;" vertex="1" parent="1">
          <mxGeometry x="275" y="890" width="120" height="40" as="geometry" />
        </mxCell>
        <mxCell id="GkLlMbA-TtIstjS6Swca-26" style="edgeStyle=orthogonalEdgeStyle;rounded=0;orthogonalLoop=1;jettySize=auto;html=1;exitX=1;exitY=0.5;exitDx=0;exitDy=0;entryX=0;entryY=0.5;entryDx=0;entryDy=0;" edge="1" parent="1" source="A50oPSLGUD1VRiYejSJO-4" target="GkLlMbA-TtIstjS6Swca-24">
          <mxGeometry relative="1" as="geometry" />
        </mxCell>
        <mxCell id="GkLlMbA-TtIstjS6Swca-32" value="" style="edgeStyle=orthogonalEdgeStyle;rounded=0;orthogonalLoop=1;jettySize=auto;html=1;" edge="1" parent="1" source="GkLlMbA-TtIstjS6Swca-28" target="GkLlMbA-TtIstjS6Swca-31">
          <mxGeometry relative="1" as="geometry" />
        </mxCell>
        <mxCell id="GkLlMbA-TtIstjS6Swca-28" value="Mission Object" style="html=1;whiteSpace=wrap;" vertex="1" parent="1">
          <mxGeometry x="275" y="782.5" width="120" height="40" as="geometry" />
        </mxCell>
        <mxCell id="GkLlMbA-TtIstjS6Swca-30" value="Clear" style="shape=umlBoundary;whiteSpace=wrap;html=1;flipH=1;" vertex="1" parent="1">
          <mxGeometry x="570" y="762.5" width="100" height="80" as="geometry" />
        </mxCell>
        <mxCell id="GkLlMbA-TtIstjS6Swca-33" value="" style="edgeStyle=orthogonalEdgeStyle;rounded=0;orthogonalLoop=1;jettySize=auto;html=1;" edge="1" parent="1" source="GkLlMbA-TtIstjS6Swca-31" target="GkLlMbA-TtIstjS6Swca-30">
          <mxGeometry relative="1" as="geometry" />
        </mxCell>
        <mxCell id="GkLlMbA-TtIstjS6Swca-31" value="key == 3" style="rhombus;whiteSpace=wrap;html=1;" vertex="1" parent="1">
          <mxGeometry x="450" y="785" width="80" height="35" as="geometry" />
        </mxCell>
        <mxCell id="GkLlMbA-TtIstjS6Swca-37" value="" style="edgeStyle=orthogonalEdgeStyle;rounded=0;orthogonalLoop=1;jettySize=auto;html=1;" edge="1" parent="1" source="GkLlMbA-TtIstjS6Swca-34" target="GkLlMbA-TtIstjS6Swca-36">
          <mxGeometry relative="1" as="geometry" />
        </mxCell>
        <mxCell id="GkLlMbA-TtIstjS6Swca-34" value="EnemyOnSight" style="rhombus;whiteSpace=wrap;html=1;" vertex="1" parent="1">
          <mxGeometry x="267.5" y="960" width="135" height="45" as="geometry" />
        </mxCell>
        <mxCell id="GkLlMbA-TtIstjS6Swca-39" value="" style="edgeStyle=orthogonalEdgeStyle;rounded=0;orthogonalLoop=1;jettySize=auto;html=1;" edge="1" parent="1" source="GkLlMbA-TtIstjS6Swca-36" target="GkLlMbA-TtIstjS6Swca-38">
          <mxGeometry relative="1" as="geometry" />
        </mxCell>
        <mxCell id="GkLlMbA-TtIstjS6Swca-36" value="Monster" style="whiteSpace=wrap;html=1;" vertex="1" parent="1">
          <mxGeometry x="275" y="1030" width="120" height="40" as="geometry" />
        </mxCell>
        <mxCell id="GkLlMbA-TtIstjS6Swca-41" value="" style="edgeStyle=orthogonalEdgeStyle;rounded=0;orthogonalLoop=1;jettySize=auto;html=1;" edge="1" parent="1" source="GkLlMbA-TtIstjS6Swca-38" target="GkLlMbA-TtIstjS6Swca-40">
          <mxGeometry relative="1" as="geometry" />
        </mxCell>
        <mxCell id="GkLlMbA-TtIstjS6Swca-38" value="collide Player" style="rhombus;whiteSpace=wrap;html=1;" vertex="1" parent="1">
          <mxGeometry x="430" y="1025" width="100" height="50" as="geometry" />
        </mxCell>
        <mxCell id="GkLlMbA-TtIstjS6Swca-40" value="Game Over" style="shape=umlBoundary;whiteSpace=wrap;html=1;flipH=1;" vertex="1" parent="1">
          <mxGeometry x="570" y="1010" width="100" height="80" as="geometry" />
        </mxCell>
        <mxCell id="GkLlMbA-TtIstjS6Swca-45" value="" style="edgeStyle=orthogonalEdgeStyle;rounded=0;orthogonalLoop=1;jettySize=auto;html=1;" edge="1" parent="1" source="GkLlMbA-TtIstjS6Swca-43" target="GkLlMbA-TtIstjS6Swca-24">
          <mxGeometry relative="1" as="geometry" />
        </mxCell>
        <mxCell id="GkLlMbA-TtIstjS6Swca-47" style="edgeStyle=orthogonalEdgeStyle;rounded=0;orthogonalLoop=1;jettySize=auto;html=1;entryX=0.5;entryY=0;entryDx=0;entryDy=0;" edge="1" parent="1" source="GkLlMbA-TtIstjS6Swca-43" target="GkLlMbA-TtIstjS6Swca-38">
          <mxGeometry relative="1" as="geometry" />
        </mxCell>
        <mxCell id="GkLlMbA-TtIstjS6Swca-43" value="Player" style="html=1;whiteSpace=wrap;" vertex="1" parent="1">
          <mxGeometry x="460" y="890" width="120" height="40" as="geometry" />
        </mxCell>
      </root>
    </mxGraphModel>
  </diagram>
</mxfile>
